[img]http://img221.imageshack.us/img221/5646/twilightpart2.jpg[/img]

[b][size=200][color=black]PLOT[/color][/size][/b]

[code]After the birth of Renesmee, the Cullens gather other vampire clans in order 
to protect the child from a false allegation that puts the family in front of the Volturi.[/code]

[b][size=200][color=black]IMDB[/color][/size][/b]

[code]http://www.imdb.com/title/tt1673434/[/code]

[b][size=200][color=black]MOVIE INFO[/color][/size][/b]

[code]The Twilight Saga Breaking Dawn Part 2 [2012] BRRip x264 AAC-V3nom

Format                                   : MPEG-4
Format profile                           : Base Media / Version 2
Codec ID                                 : mp42
File size                                : 383 MiB
Duration                                 : 1h 55mn
Overall bit rate mode                    : Variable
Overall bit rate                         : 465 Kbps
Encoded date                             : UTC 2013-02-20 15:28:10
Tagged date                              : UTC 2013-02-20 16:10:13

Video
ID                                       : 1
Format                                   : AVC
Format/Info                              : Advanced Video Codec
Format profile                           : Main@L2.1
Format settings, CABAC                   : Yes
Format settings, ReFrames                : 4 frames
Codec ID                                 : avc1
Codec ID/Info                            : Advanced Video Coding
Duration                                 : 1h 55mn
Bit rate mode                            : Variable
Bit rate                                 : 361 Kbps
Width                                    : 640 pixels
Height                                   : 256 pixels
Display aspect ratio                     : 2.40:1
Frame rate mode                          : Variable
Frame rate                               : 23.976 fps
Minimum frame rate                       : 5.994 fps
Maximum frame rate                       : 23.981 fps
Color space                              : YUV
Chroma subsampling                       : 4:2:0
Bit depth                                : 8 bits
Scan type                                : Progressive
Bits/(Pixel*Frame)                       : 0.092
Stream size                              : 300 MiB (78%)
Writing library                          : x264 core 112

Audio
ID                                       : 2
Format                                   : AAC
Format/Info                              : Advanced Audio Codec
Format profile                           : LC
Codec ID                                 : 40
Duration                                 : 1h 55mn
Bit rate mode                            : Variable
Bit rate                                 : 96.0 Kbps
Maximum bit rate                         : 145 Kbps
Channel(s)                               : 2 channels
Channel positions                        : Front: L R
Sampling rate                            : 48.0 KHz
Compression mode                         : Lossy
Delay relative to video                  : 209ms
Stream size                              : 79.1 MiB (21%)
Language                                 : English
Encoded date                             : UTC 2013-02-20 15:28:10
Tagged date                              : UTC 2013-02-20 16:10:08[/code]

[b][size=200][color=black]SOURCE[/color][/size][/b]

[code]The Twilight Saga: Breaking Dawn - Part 2 (2012) 720p BrRip x264 - YIFY(Thanks)[/code]

[b][size=200][color=black]SCREENSHOTS[/color][/size][/b]

[img]http://img341.imageshack.us/img341/7528/thetwilightsagabreakingi.jpg[/img]

[img]http://kastatic.com/i2/users/133df62bbf28e62494bb17fe11078f1a.gif[/img][img]http://kastatic.com/i2/users/133df62bbf28e62494bb17fe11078f1a.gif[/img]